<?xml version="1.0" standalone="no"?>
<!DOCTYPE svg PUBLIC "-//W3C//DTD SVG 20010904//EN"
 "http://www.w3.org/TR/2001/REC-SVG-20010904/DTD/svg10.dtd">
<svg version="1.0" xmlns="http://www.w3.org/2000/svg"
 width="466.000000pt" height="466.000000pt" viewBox="0 0 466.000000 466.000000"
 preserveAspectRatio="xMidYMid meet">

<circle cx="233" cy="233" r="233" fill="#ffffff"/>

<g transform="translate(0.000000,384.000000) scale(0.100000,-0.100000)"
fill="#000000" stroke="none">
<path d="M1045 2402 c-261 -17 -452 -255 -401 -500 48 -231 229 -363 480 -350
77 4 102 10 169 41 96 44 168 115 211 207 28 60 31 74 31 175 0 103 -2 114
-31 175 -84 175 -251 266 -459 252z m134 -177 c62 -21 109 -62 139 -119 38
-74 38 -178 0 -257 -67 -135 -247 -180 -376 -94 -133 88 -151 296 -37 410 68
69 180 93 274 60z"/>
<path d="M1690 1975 l0 -415 95 0 95 0 0 150 0 150 190 0 190 0 0 80 0 80
-190 0 -190 0 0 110 0 110 215 0 215 0 0 75 0 75 -310 0 -310 0 0 -415z"/>
<path d="M2480 1975 l0 -415 40 0 39 0 3 133 3 132 145 0 144 0 95 -132 95
-133 43 0 c24 0 43 2 43 5 0 5 -21 35 -130 190 -34 47 -60 88 -58 89 1 2 21
13 43 24 87 44 134 126 135 233 0 84 -21 144 -68 192 -78 81 -140 97 -384 97
l-188 0 0 -415z m442 313 c63 -29 93 -65 108 -133 26 -116 -38 -220 -150 -244
-28 -6 -112 -11 -185 -11 l-135 0 0 203 c0 112 3 207 8 211 4 5 73 6 153 4
129 -4 152 -8 201 -30z"/>
<path d="M3330 1975 l0 -415 45 0 45 0 2 332 3 333 65 -82 c36 -44 94 -118
130 -164 36 -46 113 -144 172 -219 60 -74 120 -150 134 -168 22 -28 31 -33 60
-30 l35 3 0 410 0 410 -41 3 -40 3 -2 -337 -3 -338 -65 83 c-36 46 -92 118
-126 160 -142 177 -292 368 -314 399 -20 26 -30 32 -62 32 l-38 0 0 -415z"/>
<path d="M2955 1257 c-25 -18 -42 -22 -105 -21 -41 1 -93 8 -115 16 -29 11
-61 13 -115 9 -72 -6 -73 -6 -45 -20 61 -27 182 -63 234 -68 l53 -6 -23 -19
c-70 -56 -50 -58 -258 32 l-190 81 -32 -17 c-39 -20 -47 -14 131 -89 74 -31
155 -66 180 -77 l45 -19 -30 -25 c-16 -14 -102 -73 -190 -132 -100 -67 -153
-108 -142 -110 19 -4 22 -17 7 -27 -18 -11 6 -30 70 -56 53 -21 77 -39 51 -39
-14 0 -134 -91 -128 -97 3 -2 40 19 83 47 l77 53 51 -23 c218 -95 333 -115
411 -72 150 85 101 270 -72 272 -61 0 -145 -29 -280 -97 l-93 -47 -70 34 c-38
19 -70 37 -70 40 0 3 15 14 33 25 65 38 204 130 273 180 l70 52 140 -60 c131
-57 144 -61 220 -61 73 -1 84 2 116 26 128 98 28 297 -150 298 -50 0 -52 1
-42 20 10 18 8 20 -27 20 -23 -1 -50 -9 -68 -23z m45 -47 c-25 -20 -111 -51
-119 -44 -8 7 32 33 74 48 58 21 75 19 45 -4z m164 -34 c102 -43 113 -180 16
-206 -61 -17 -125 1 -318 88 l-44 20 56 37 c107 71 213 93 290 61z m-194 -368
c61 -31 81 -80 54 -134 -31 -63 -63 -79 -152 -78 -65 0 -92 6 -172 38 -162 65
-158 58 -60 104 100 48 224 91 260 92 14 0 46 -10 70 -22z"/>
<path d="M2005 1240 c-44 -5 -102 -15 -130 -24 -65 -22 -143 -23 -182 -2 -33
17 -103 22 -103 8 0 -4 5 -13 12 -20 9 -9 3 -12 -29 -12 -54 0 -121 -25 -157
-58 -78 -74 -75 -200 6 -250 81 -50 151 -37 348 63 105 54 127 62 140 51 13
-12 186 -114 329 -194 l54 -30 -73 -40 -72 -40 -87 38 c-249 108 -383 106
-432 -6 -27 -60 -14 -110 42 -158 81 -69 168 -62 364 30 l139 64 74 -45 c41
-25 79 -44 85 -42 11 3 -116 87 -133 87 -25 0 -5 17 51 45 72 36 87 50 62 60
-17 6 -17 7 1 21 11 7 18 15 15 17 -2 2 -47 26 -99 54 -122 65 -273 158 -278
171 -1 5 77 50 175 100 98 49 178 94 177 98 0 5 -13 13 -28 19 -25 8 -49 -1
-211 -83 l-183 -93 -46 28 c-25 15 -46 32 -46 36 0 5 4 6 9 3 21 -13 301 88
301 108 0 3 -3 5 -7 4 -5 0 -44 -4 -88 -8z m-261 -145 c42 -21 79 -41 82 -46
3 -5 -54 -38 -127 -74 -108 -53 -140 -65 -181 -65 -127 0 -146 147 -28 212 57
32 157 21 254 -27z m127 -319 c64 -17 249 -88 249 -96 0 -7 -175 -90 -240
-113 -71 -25 -137 -19 -183 16 -66 50 -72 116 -16 168 44 41 100 48 190 25z"/>
<path d="M2290 523 c-69 -78 -85 -155 -50 -228 17 -36 63 -75 87 -75 4 0 -6 9
-24 20 -54 32 -80 105 -63 171 6 21 31 64 56 94 49 61 45 76 -6 18z"/>
<path d="M2398 506 c82 -87 92 -178 25 -245 -41 -41 -42 -49 -4 -22 56 40 76
125 47 196 -16 37 -92 125 -109 125 -5 0 13 -24 41 -54z"/>
</g>
</svg>