<svg xmlns="http://www.w3.org/2000/svg" viewBox="0 0 290 584"><path d="M255.372,536.584 C244.235,536.803 234.718,536.213 229.768,534.991 C225.242,533.872 225.524,532.465 230.486,531.407 C237.47,529.917 251.836,529.407 269.987,530 C289.495,520.018 260.083,516.134 238.578,513.296 C231.223,512.325 224.911,511.489 221.918,510.578 L222.726,509.944 C224.485,510.984 231.538,511.917 240.035,513.04 C250.657,514.441 263.876,516.186 271.7,518.85 C280.212,521.748 280.829,525.175 273.585,529.303 C276.198,529.348 278.96,529.418 281.892,529.52 C312.515,514.143 220.936,512.26 225.39,507.844 L249.7,488.707 L249.987,488.825 L274.728,487.42 L274.648,487.291 C274.636,487.271 274.218,486.584 273.728,485.608 L278.552,485.608 L278.552,485.948 C278.552,486.135 279.549,486.288 280.778,486.288 C282.008,486.288 283.006,486.135 283.006,485.948 L283.006,484.929 C283.006,484.741 282.008,484.589 280.778,484.589 C279.549,484.589 278.552,484.741 278.552,484.929 L273.399,484.929 C273.199,484.5 272.999,484.041 272.82,483.57 L278.552,483.57 C278.552,483.757 279.549,483.91 280.778,483.91 C282.008,483.91 283.006,483.757 283.006,483.57 L283.006,482.551 C283.006,482.363 282.008,482.211 280.778,482.211 C279.549,482.211 278.552,482.363 278.552,482.551 L278.552,482.89 L272.579,482.89 C272.428,482.428 272.306,481.969 272.23,481.533 L278.552,481.533 C278.552,481.72 279.549,481.872 280.778,481.872 C282.008,481.872 283.006,481.72 283.006,481.533 L283.006,480.512 C283.006,480.325 282.008,480.174 280.778,480.174 C279.549,480.174 278.552,480.325 278.552,480.512 L278.552,480.853 L272.155,480.853 C272.131,480.33 272.202,479.86 272.409,479.494 L278.552,479.494 C278.552,479.681 279.549,479.833 280.778,479.833 C282.008,479.833 283.006,479.681 283.006,479.494 L283.006,478.475 C283.006,478.346 282.536,478.236 281.851,478.178 C283.492,478.042 285.136,477.806 286.559,477.356 C289.012,476.581 288.191,475.703 284.366,475.007 C280.099,474.231 273.29,473.901 267.021,474.171 C266.327,474.201 265.58,474.263 264.793,474.35 C252.726,475.025 223.708,485.699 223.708,485.699 L236.055,487.676 L199.354,508.862 L198.529,509.337 C193.87,509.752 183.515,510.557 162.578,511.754 C127.669,513.751 108.971,518.754 113.652,524.828 C123.775,525.304 130.534,526.368 132.251,527.758 C133.802,529.015 130.862,530.288 124.764,530.997 C118.93,531.675 111.271,531.731 103.132,531.157 C88.921,532.909 77.506,537.782 83.633,542.111 C87.731,545.004 100.851,548.706 139.202,550.567 L138.876,550.908 L130.451,559.664 L150.438,551.379 L151.214,551.059 C176.567,551.875 213.217,551.014 235.731,547.747 C253.9,545.11 260.681,541.253 255.372,536.584" fill="currentColor"/>
<path d="M13.297,357.059 L10.801,365.351 L76.576,559.576 L81.29,558.208 L13.297,357.059 z M10.843,345.567 L11.522,348.564 L83.565,561.694 L83.073,561.86 L85.08,569.474 C90.426,587.223 85.9,582.395 85.9,582.395 L83.78,576.391 L77.777,577.995 L74.829,567.372 L1,349.357 L1.456,349.204 L1.443,349.168 L10.843,345.567 z M160.244,442.526 L173.349,386.644 L167.608,385.491 L153.875,440.978 L160.244,442.526 z M160.785,442.658 L167.151,444.205 L179.599,387.9 L173.896,386.753 L160.785,442.658 z M219.341,412.161 L219.328,411.454 C219.354,410.987 219.143,410.547 219.031,410.122 C218.874,409.704 218.585,409.343 218.371,408.979 C219.067,410.612 218.664,412.354 217.666,413.503 C216.67,414.679 215.188,415.369 213.721,415.583 C212.244,415.825 210.744,415.595 209.416,415.003 C208.093,414.385 206.932,413.416 205.937,412.327 C204.354,410.46 204.785,407.432 205.965,404.473 C207.108,401.505 208.73,398.552 210.389,395.589 C212.037,392.609 213.79,389.628 215.282,386.379 C216.01,384.741 216.709,383.058 217.154,381.155 C217.368,380.201 217.524,379.182 217.465,378.055 C217.375,376.945 217.047,375.837 216.512,374.87 C215.429,372.909 213.646,371.644 211.836,370.929 C210.002,370.229 208.078,369.953 206.183,370.146 C204.319,370.374 202.36,371.018 201.054,372.516 C200.416,373.255 200.013,374.175 199.903,375.091 C199.803,376.012 199.937,376.902 200.192,377.728 C200.128,375.998 200.658,374.29 201.908,373.399 C203.124,372.492 204.723,372.22 206.254,372.32 C209.297,372.467 212.462,374.127 213.419,376.427 C213.906,377.576 213.803,378.73 213.384,380.185 C212.961,381.611 212.259,383.087 211.499,384.542 C209.97,387.467 208.201,390.396 206.501,393.417 C204.826,396.456 203.146,399.567 201.983,403.083 C201.43,404.847 200.968,406.721 201.011,408.798 C201.005,409.822 201.208,410.917 201.582,411.957 C201.986,413.002 202.646,413.945 203.417,414.721 C204.878,416.024 206.5,417.167 208.423,417.749 C210.339,418.295 212.404,418.312 214.26,417.703 C216.088,417.068 217.777,415.899 218.691,414.19 C218.875,413.74 219.135,413.339 219.197,412.854 L219.341,412.161 z M181.992,379.651 L245.871,90.677 L245.327,90.558 L181.444,379.544 L175.843,378.449 L245.221,82.608 L244.679,82.481 L175.295,378.342 L169.651,377.239 L244.57,74.538 L244.03,74.405 L169.104,377.132 L163.419,376.022 L237.081,92.77 L237.099,92.699 L243.921,66.469 L243.382,66.327 L236.315,93.499 L236.066,94.454 L162.87,375.914 L154.567,374.292 L152.526,382.458 L160.739,384.11 L146.422,439.165 L144.063,438.591 L141.434,487.096 L151.375,489.173 L170.977,445.135 L167.692,444.336 L180.144,388.008 L189.46,389.881 L191.115,381.434 L181.992,379.651 z M138.056,395.631 C138.902,394.923 139.631,394.08 140.143,393.193 C141.226,391.421 141.771,389.569 142.185,387.768 C142.953,384.145 143.071,380.61 143.156,377.141 C143.212,373.676 143.163,370.256 143.317,366.957 C143.396,365.319 143.534,363.688 143.887,362.245 C144.26,360.776 144.753,359.727 145.752,358.982 C147.737,357.478 151.309,357.641 154.011,359.047 C155.382,359.736 156.626,360.776 157.22,362.171 C157.851,363.572 157.444,365.314 156.517,366.776 C157.154,366.192 157.72,365.491 158.098,364.644 C158.465,363.798 158.58,362.8 158.401,361.838 C158.03,359.888 156.662,358.342 155.169,357.208 C153.628,356.084 151.828,355.353 149.893,355.033 C147.969,354.737 145.79,354.929 143.866,356.078 C142.916,356.643 142.076,357.434 141.437,358.347 C140.818,359.29 140.439,360.25 140.143,361.181 C139.567,363.048 139.323,364.855 139.122,366.635 C138.773,370.194 138.784,373.654 138.706,377.058 C138.643,380.452 138.554,383.82 138.045,386.959 C137.569,390.109 136.415,392.943 134.107,393.756 C132.7,394.193 131.208,394.446 129.754,394.311 C128.308,394.153 126.896,393.594 125.745,392.641 C124.585,391.715 123.654,390.372 123.387,388.854 C123.104,387.358 123.635,385.65 125.06,384.591 C124.691,384.798 124.26,384.963 123.913,385.246 C123.604,385.557 123.199,385.83 122.985,386.248 L122.617,386.851 L122.392,387.521 C122.199,387.972 122.223,388.449 122.154,388.93 C122.082,390.868 122.952,392.728 124.209,394.199 C125.505,395.662 127.297,396.689 129.225,397.183 C131.18,397.651 133.157,397.481 135.077,397.093 C136.131,396.813 137.179,396.331 138.056,395.631 M274.054,6.2 C279.678,9.879 282.795,16.902 279.608,23.503 C278.609,25.576 277.509,26.885 276.378,27.746 C277.941,27.093 279.467,25.85 280.83,23.02 C282.893,18.751 282.185,13.889 278.938,10.017 C277.566,8.38 275.892,7.094 274.054,6.2 M274.998,30.478 C274.664,30.551 274.337,30.614 274.019,30.675 C272.041,31.055 270.527,31.348 269.595,33.549 L274.83,33.549 L274.83,31.322 C274.83,31.023 274.892,30.739 274.998,30.478 M266.453,38.002 L265.344,38.002 C265.14,40.423 265.069,43.487 265.092,46.912 L266.201,46.912 C266.18,43.503 266.251,40.448 266.453,38.002 M266.275,51.365 L265.166,51.365 C265.24,54.236 265.361,57.249 265.511,60.273 L266.617,60.273 C266.468,57.25 266.349,54.24 266.275,51.365 M266.858,64.727 L265.752,64.727 C265.932,67.812 266.132,70.826 266.331,73.636 L267.436,73.636 C267.236,70.826 267.036,67.81 266.858,64.727 M267.766,78.089 L266.661,78.089 C267.085,83.613 267.454,87.72 267.561,88.878 L268.632,88.479 C268.481,86.822 268.144,83.001 267.766,78.089 M255.204,78.091 C255.204,79.32 256.201,80.318 257.431,80.318 C258.661,80.318 259.658,79.32 259.658,78.091 C259.658,76.861 258.661,75.863 257.431,75.863 C256.201,75.863 255.204,76.861 255.204,78.091 M259.658,35.776 C259.658,34.546 258.661,33.549 257.431,33.549 C256.201,33.549 255.204,34.546 255.204,35.776 C255.204,37.006 256.201,38.003 257.431,38.003 C258.661,38.003 259.658,37.006 259.658,35.776 M257.431,62.5 C256.201,62.5 255.204,63.498 255.204,64.729 C255.204,65.958 256.201,66.956 257.431,66.956 C258.661,66.956 259.658,65.958 259.658,64.729 C259.658,63.498 258.661,62.5 257.431,62.5 M259.658,51.366 C259.658,50.136 258.661,49.138 257.431,49.138 C256.201,49.138 255.204,50.136 255.204,51.366 C255.204,52.595 256.201,53.592 257.431,53.592 C258.661,53.592 259.658,52.595 259.658,51.366 M266.188,33.549 L267.241,33.549 C267.758,31.929 268.477,30.855 269.368,30.128 C268.045,30.608 266.93,31.488 266.188,33.549 M232.01,485.463 C209.496,506.885 172.847,512.531 147.493,507.174 L126.729,563.593 L135.481,503.955 C97.129,491.746 84.01,467.489 79.912,448.511 C73.785,420.135 85.2,388.186 99.41,376.708 C107.549,380.468 115.209,380.104 121.043,375.655 C127.142,371.002 130.079,362.666 128.528,354.419 C126.815,345.305 120.055,338.335 109.932,335.204 C105.248,295.391 123.948,262.595 158.855,249.505 C179.793,241.653 190.148,236.372 194.809,233.658 L232.334,91.648 L219.986,78.685 C219.986,78.685 249.005,8.711 261.071,4.289 C261.859,3.709 262.606,3.303 263.301,3.108 C269.569,1.343 276.378,3.497 280.646,8.587 C284.471,13.15 285.29,18.908 282.838,23.989 C281.414,26.94 279.771,28.49 278.129,29.382 C278.814,29.761 279.285,30.483 279.285,31.322 L279.285,38.002 C279.285,39.233 278.287,40.23 277.059,40.23 C275.828,40.23 274.83,39.233 274.83,38.002 L268.688,38.002 C268.481,40.401 268.41,43.471 268.434,46.912 L274.83,46.912 L274.83,44.684 C274.83,43.454 275.828,42.458 277.059,42.458 C278.287,42.458 279.285,43.454 279.285,44.684 L279.285,51.365 C279.285,52.595 278.287,53.592 277.059,53.592 C275.828,53.592 274.83,52.595 274.83,51.365 L268.509,51.365 C268.584,54.233 268.706,57.248 268.858,60.273 L274.83,60.273 L274.83,58.047 C274.83,56.816 275.828,55.82 277.059,55.82 C278.287,55.82 279.285,56.816 279.285,58.047 L279.285,64.727 C279.285,65.958 278.287,66.956 277.059,66.956 C275.828,66.956 274.83,65.958 274.83,64.727 L269.098,64.727 C269.278,67.812 269.479,70.827 269.678,73.636 L274.83,73.636 C274.83,72.406 275.828,71.409 277.059,71.409 C278.287,71.409 279.285,72.406 279.285,73.636 L279.285,80.318 C279.285,81.546 278.287,82.544 277.059,82.544 C275.828,82.544 274.83,81.546 274.83,80.318 L274.83,78.089 L270.006,78.089 C270.497,84.495 270.915,88.993 270.927,89.122 L271.007,89.971 L246.266,99.177 L245.979,98.404 L221.668,223.871 C217.214,252.823 308.794,265.166 278.171,365.973 C275.239,365.306 272.478,364.849 269.863,364.555 C277.109,337.492 276.489,315.016 267.979,296.022 C260.155,278.558 246.936,267.118 236.313,257.926 C227.816,250.573 220.765,244.455 219.005,237.618 L218.196,241.787 C221.188,247.76 227.502,253.244 234.856,259.61 C256.362,278.221 285.773,303.678 266.266,369.118 C248.115,365.227 233.747,368.57 226.764,378.341 C221.803,385.282 221.521,394.502 226.048,401.835 C230.996,409.851 240.514,413.715 251.651,412.292 C256.959,442.893 250.179,468.177 232.01,485.463 M167.063,385.38 L161.286,384.217 L146.963,439.296 L153.335,440.846 L167.063,385.38 z M143.762,485.308 L150.07,486.625 L167.855,446.668 L146.142,441.39 L143.762,485.308 z M233.545,487.078 C229.357,491.06 224.685,494.495 219.701,497.443 C249.338,484.805 272.816,456.755 263.695,406.584 C236.918,410.792 227.226,384.021 242.016,370.994 C236.21,372.507 231.604,375.402 228.576,379.636 C224.138,385.845 223.89,394.1 227.942,400.666 C232.633,408.263 241.541,411.64 252.387,409.938 L253.461,409.77 L253.655,410.839 C259.445,442.688 252.492,469.051 233.545,487.078 M104.905,376.334 C106.69,374.203 108.535,372.381 110.399,370.952 C113.828,372.623 117.031,373.467 119.965,373.658 C119.872,373.731 119.785,373.812 119.69,373.882 C115.632,376.981 110.504,377.796 104.905,376.334" fill="currentColor"/></svg>